#!OML:ASF H:\Terrain\Patient Classification 1\Walking\liu\liu.ASF
:FULLY-SPECIFIED
:DEGREES
227
root 8.689750 16.200500 -5.266350 10.385900 -4.120000 -8.027290
lowerback -10.375002 3.377132 5.123206
upperback -1.664146 3.794307 4.276591
thorax 4.115672 1.923009 2.052347
lowerneck -17.875441 -6.609823 -15.337080
upperneck 17.104561 -8.522316 16.424431
head 9.554953 -3.417062 7.098872
rclavicle 0.000000 0.000000
rhumerus -45.094173 15.084081 -95.609802
rradius 56.599731
rwrist -27.626829
rhand -35.024773 -33.107029
rfingers 7.837522
rthumb -5.604456 -66.017715
lclavicle 0.000000 0.000000
lhumerus -57.173164 -9.012312 103.876297
lradius 26.335871
lwrist 4.415565
lhand -7.284156 -26.045141
lfingers 7.837522
lthumb 21.157841 5.930540
rfemur 19.245489 8.122059 34.677280
rtibia 0.000000
rfoot -11.700150 8.515738
rtoes -13.690160
lfemur -52.903072 6.065928 -13.667500
ltibia 31.261560
lfoot -7.143004 13.992770
ltoes -15.635840
228
root 8.711260 16.180401 -5.090830 10.541300 -4.256970 -7.881680
lowerback -10.421412 3.342394 4.865828
upperback -1.683341 3.777609 4.140059
thorax 4.114682 1.912229 2.052545
lowerneck -18.230520 -6.586481 -15.152610
upperneck 17.107639 -8.495564 16.439831
head 9.609611 -3.377638 7.073781
rclavicle 0.000000 0.000000
rhumerus -45.170948 14.818320 -95.887993
rradius 56.169300
rwrist -27.311682
rhand -35.378311 -33.931480
rfingers 7.837522
rthumb -5.945731 -66.833580
lclavicle 0.000000 0.000000
lhumerus -56.848003 -8.532349 103.017746
lradius 26.092770
lwrist 3.201704
lhand -8.565579 -26.287031
lfingers 7.837522
lthumb 19.925289 5.807153
rfemur 19.813091 8.077696 34.360920
rtibia -0.000000
rfoot -11.429770 8.552984
rtoes -15.234231
lfemur -53.618950 7.328046 -14.696550
ltibia 32.642281
lfoot -4.287580 13.009590
ltoes -14.226191
229
root 8.733130 16.136499 -4.934440 10.597700 -4.272230 -7.664410
lowerback -10.063472 3.207567 4.452635
upperback -1.853104 3.679038 4.046064
thorax 3.720706 1.856349 2.143075
lowerneck -18.073000 -6.513144 -15.140070
upperneck 17.007210 -8.431324 16.567211
head 9.542533 -3.342295 7.125591
rclavicle 0.000000 -0.000000
rhumerus -45.474220 14.617791 -96.163101
rradius 55.900352
rwrist -27.129520
rhand -35.282719 -35.194939
rfingers 7.837522
rthumb -5.853441 -68.099464
lclavicle 0.000000 -0.000000
lhumerus -56.883091 -8.308619 102.580727
lradius 25.859240
lwrist 2.569314
lhand -9.723858 -26.533541
lfingers 7.837522
lthumb 18.810659 5.660611
rfemur 20.429201 7.869334 34.004520
rtibia -0.000000
rfoot -10.471869 8.579604
rtoes -14.862210
lfemur -54.346050 8.171736 -15.561370
ltibia 34.216049
lfoot -2.268354 12.243330
ltoes -15.245230
230
root 8.757810 16.123199 -4.767910 10.706700 -4.254930 -7.408520
lowerback -9.908372 3.130688 4.058065
upperback -2.028587 3.638437 3.946899
thorax 3.435817 1.831060 2.238324
lowerneck -18.100941 -6.535199 -15.140731
upperneck 17.142509 -8.472893 16.560829
head 9.599326 -3.360445 7.121356
rclavicle -0.000000 -0.000000
rhumerus -46.191311 14.381401 -96.284546
rradius 56.101761
rwrist -27.212681
rhand -34.744930 -35.593910
rfingers 7.837522
rthumb -5.334230 -68.510864
lclavicle -0.000000 -0.000000
lhumerus -57.000019 -8.526738 102.612732
lradius 25.638470
lwrist 2.566498
lhand -9.375092 -25.863531
lfingers 7.837522
lthumb 19.146271 6.301229
rfemur 20.893620 7.643317 33.526241
rtibia 0.000000
rfoot -9.509720 8.538035
rtoes -12.351240
lfemur -54.816410 8.440784 -16.107962
ltibia 35.742409
lfoot -0.883202 11.957220
ltoes -14.512300
